<?xml version="1.0" standalone="no"?>
<svg xmlns="http://www.w3.org/2000/svg" width="24" height="24"><rect width="24" height="24" opacity="0"></rect><g><path d="M9.31 17.81Q9.53 18.02 9.83 18.02Q10.13 18.02 10.37 17.81L15.36 12.82Q15.74 12.46 15.74 11.94Q15.74 11.42 15.36 11.04L10.34 6.05Q10.13 5.83 9.82 5.83Q9.5 5.83 9.29 6.05Q9.07 6.26 9.07 6.58Q9.07 6.89 9.29 7.1L14.11 11.93L9.31 16.75Q9.07 16.97 9.07 17.28Q9.07 17.59 9.31 17.81Z" fill="rgba(0,0,0,0.9019607843137255)"></path></g><g><path d="M21.5 12Q21.5 14.57 20.22 16.75Q18.94 18.94 16.75 20.22Q14.57 21.5 12 21.5Q9.43 21.5 7.25 20.22Q5.06 18.94 3.78 16.75Q2.5 14.57 2.5 12Q2.5 9.41 3.78 7.22Q5.06 5.04 7.25 3.77Q9.43 2.5 12 2.5Q14.57 2.5 16.75 3.77Q18.94 5.04 20.22 7.22Q21.5 9.41 21.5 12ZM22.99 12Q22.99 9 21.52 6.48Q20.04 3.96 17.52 2.48Q15 1.01 12 1.01Q9.02 1.01 6.49 2.48Q3.96 3.96 2.48 6.49Q1.01 9.02 1.01 12Q1.01 14.98 2.48 17.51Q3.96 20.04 6.49 21.52Q9.02 22.99 12 22.99Q14.98 22.99 17.51 21.52Q20.04 20.04 21.52 17.51Q22.99 14.98 22.99 12Z" fill="rgba(25,25,25,1)"></path></g></svg>